<svg width="20" height="16" viewBox="0 0 20 16" fill="none" xmlns="http://www.w3.org/2000/svg">
<path fill-rule="evenodd" clip-rule="evenodd" d="M3.33333 0C1.49238 0 0 1.53502 0 3.42857V12.5714C0 14.465 1.49238 16 3.33333 16H16.6667C18.5076 16 20 14.465 20 12.5714V3.42857C20 1.53502 18.5076 0 16.6667 0H3.33333ZM5.62469 4.21913C5.19343 3.87412 4.56414 3.94404 4.21913 4.37531C3.87412 4.80657 3.94404 5.43586 4.37531 5.78087L9.37531 9.78087L10 10.2806L10.6247 9.78087L15.6247 5.78087C16.056 5.43586 16.1259 4.80657 15.7809 4.37531C15.4359 3.94404 14.8066 3.87412 14.3753 4.21913L10 7.71938L5.62469 4.21913Z" fill="#29384D"/>
</svg>
