<svg width="20" height="20" viewBox="0 0 20 20" fill="none" xmlns="http://www.w3.org/2000/svg">
<path fill-rule="evenodd" clip-rule="evenodd" d="M10.8956 5.53231C11.0731 5.09767 11.5755 4.88678 12.0176 5.06129C12.6896 5.32649 13.2974 5.72733 13.802 6.23791C14.3065 6.74848 14.6964 7.35743 14.9466 8.0254C15.1112 8.46494 14.8821 8.95242 14.435 9.11422C13.9879 9.27603 13.492 9.05089 13.3274 8.61136C13.1606 8.16604 12.9007 7.76007 12.5643 7.41969C12.228 7.07931 11.8227 6.81208 11.3748 6.63528C10.9326 6.46077 10.7181 5.96696 10.8956 5.53231Z" fill="#29384D"/>
<path fill-rule="evenodd" clip-rule="evenodd" d="M10.864 2.33143C10.9922 1.8531 11.4839 1.56923 11.9622 1.6974C13.4825 2.10477 14.8688 2.90515 15.9818 4.01811C17.0947 5.13106 17.8951 6.51736 18.3025 8.03768C18.4306 8.51602 18.1468 9.00768 17.6684 9.13585C17.1901 9.26402 16.6984 8.98016 16.5703 8.50182C16.2444 7.28557 15.6041 6.17652 14.7137 5.28616C13.8234 4.3958 12.7143 3.75549 11.4981 3.4296C11.0197 3.30143 10.7359 2.80976 10.864 2.33143Z" fill="#29384D"/>
<path fill-rule="evenodd" clip-rule="evenodd" d="M8.75759 6.98013C8.19195 4.93643 6.15557 3.67413 4.14041 4.34628C2.82749 4.78418 2.02828 5.60113 1.76334 6.69079C1.51707 7.70362 1.77375 8.79661 2.17239 9.76253C2.97516 11.7077 4.564 13.6348 5.46358 14.535C6.34242 15.4145 8.26673 17.0102 10.2155 17.8204C11.1831 18.2226 12.2802 18.4838 13.2977 18.2381C14.3927 17.9736 15.2138 17.1703 15.6541 15.8482C16.3252 13.8331 15.0653 11.7952 13.022 11.2288L13.022 11.2288C11.6253 10.8417 10.1607 11.2108 9.16111 12.108C8.92648 11.9263 8.70084 11.7278 8.48564 11.5124C8.26939 11.296 8.07019 11.069 7.88789 10.8329C8.77799 9.83302 9.14302 8.37276 8.75759 6.98014L8.75759 6.98013Z" fill="#29384D"/>
</svg>
